<svg width="100" height="71" viewBox="0 0 100 71" fill="none" xmlns="http://www.w3.org/2000/svg">
<path d="M91.6812 39.2632C91.6815 36.254 90.6271 33.3399 88.7014 31.0276C86.7757 28.7153 84.1005 27.151 81.1409 26.6068C81.5243 24.9479 81.412 23.213 80.818 21.6174C80.224 20.0218 79.1744 18.6358 77.7996 17.6315C76.4248 16.6271 74.7853 16.0487 73.0846 15.968C71.3839 15.8872 69.697 16.3078 68.2332 17.1774C67.1847 11.9731 64.2396 7.34413 59.9698 4.18935C55.7 1.03457 50.4102 -0.420899 45.1275 0.105551C39.8448 0.632002 34.9462 3.10282 31.383 7.03821C27.8197 10.9736 25.8461 16.0927 25.8453 21.4016C25.8453 22.034 25.8453 22.6583 25.9264 23.2745C23.9536 21.7553 21.6553 20.7144 19.2122 20.2335C16.7691 19.7526 14.2478 19.8448 11.8464 20.5029C9.44494 21.161 7.22888 22.3671 5.3723 24.0263C3.51571 25.6855 2.06923 27.7527 1.1465 30.0654C0.223771 32.3781 -0.150088 34.8733 0.054382 37.3548C0.258852 39.8364 1.03605 42.2367 2.32487 44.3671C3.61369 46.4976 5.37903 48.3002 7.48215 49.6331C9.58528 50.9661 11.9689 51.7931 14.4456 52.0493L14.3889 52.1385H79.8112V52.0899C83.0411 51.8388 86.0574 50.3785 88.2578 48.0008C90.4582 45.6231 91.6807 42.5028 91.6812 39.2632Z" fill="#F6F8FE"/>
<path d="M75.725 16.6908H46.415C43.4283 16.6908 41.0071 19.112 41.0071 22.0987V63.5948C41.0071 66.5815 43.4283 69.0027 46.415 69.0027H75.725C78.7117 69.0027 81.1329 66.5815 81.1329 63.5948V22.0987C81.1329 19.112 78.7117 16.6908 75.725 16.6908Z" stroke="#E2E8FB" stroke-width="2.5" stroke-miterlimit="10"/>
<path d="M69.2224 15.6611H39.9125C36.9258 15.6611 34.5045 18.0823 34.5045 21.069V64.592C34.5045 67.5788 36.9258 70 39.9125 70H69.2224C72.2092 70 74.6304 67.5788 74.6304 64.592V21.069C74.6304 18.0823 72.2092 15.6611 69.2224 15.6611Z" fill="#1F43BA"/>
<path fill-rule="evenodd" clip-rule="evenodd" d="M46.2123 40.1552H57.3525C57.5891 40.2063 57.834 40.2037 58.0694 40.1478C58.3049 40.0918 58.5248 39.9839 58.7131 39.8319C58.9014 39.6799 59.0533 39.4877 59.1577 39.2694C59.262 39.051 59.3162 38.8121 59.3162 38.5701C59.3162 38.3282 59.262 38.0893 59.1577 37.8709C59.0533 37.6526 58.9014 37.4604 58.7131 37.3084C58.5248 37.1564 58.3049 37.0485 58.0694 36.9925C57.834 36.9366 57.5891 36.934 57.3525 36.9851H46.2123C45.9758 36.934 45.7308 36.9366 45.4954 36.9925C45.26 37.0485 45.04 37.1564 44.8517 37.3084C44.6634 37.4604 44.5116 37.6526 44.4072 37.8709C44.3029 38.0893 44.2487 38.3282 44.2487 38.5701C44.2487 38.8121 44.3029 39.051 44.4072 39.2694C44.5116 39.4877 44.6634 39.6799 44.8517 39.8319C45.04 39.9839 45.26 40.0918 45.4954 40.1478C45.7308 40.2037 45.9758 40.2063 46.2123 40.1552Z" fill="white"/>
<path fill-rule="evenodd" clip-rule="evenodd" d="M46.2122 30.0771H62.9226C63.3527 30.0771 63.7651 29.9062 64.0692 29.6021C64.3733 29.298 64.5442 28.8856 64.5442 28.4555C64.5442 28.0254 64.3733 27.613 64.0692 27.3089C63.7651 27.0048 63.3527 26.8339 62.9226 26.8339H46.2122C45.7822 26.8339 45.3697 27.0048 45.0656 27.3089C44.7615 27.613 44.5907 28.0254 44.5907 28.4555C44.5907 28.8856 44.7615 29.298 45.0656 29.6021C45.3697 29.9062 45.7822 30.0771 46.2122 30.0771Z" fill="white"/>
<path d="M86.2165 16.618C87.8201 16.618 89.3877 16.1424 90.721 15.2515C92.0543 14.3606 93.0935 13.0943 93.7072 11.6128C94.3208 10.1313 94.4814 8.50111 94.1686 6.92833C93.8557 5.35556 93.0835 3.91087 91.9496 2.77696C90.8157 1.64306 89.3711 0.870859 87.7983 0.558015C86.2255 0.245171 84.5953 0.405737 83.1138 1.0194C81.6322 1.63307 80.366 2.67226 79.4751 4.00559C78.5842 5.33892 78.1086 6.90651 78.1086 8.5101C78.1086 10.6604 78.9629 12.7227 80.4834 14.2432C82.0039 15.7637 84.0662 16.618 86.2165 16.618Z" fill="#1F43BA"/>
<path d="M96.6919 55.3328C97.986 55.3328 99.035 54.2837 99.035 52.9896C99.035 51.6955 97.986 50.6464 96.6919 50.6464C95.3978 50.6464 94.3487 51.6955 94.3487 52.9896C94.3487 54.2837 95.3978 55.3328 96.6919 55.3328Z" stroke="#F2C94C" stroke-miterlimit="10"/>
<path d="M21.2239 38.3145C22.7643 38.3145 24.013 37.0658 24.013 35.5254C24.013 33.985 22.7643 32.7363 21.2239 32.7363C19.6835 32.7363 18.4348 33.985 18.4348 35.5254C18.4348 37.0658 19.6835 38.3145 21.2239 38.3145Z" stroke="#56CCF2" stroke-miterlimit="10"/>
<path d="M91.1137 38.3145C91.8839 38.3145 92.5083 37.6901 92.5083 36.9199C92.5083 36.1497 91.8839 35.5253 91.1137 35.5253C90.3435 35.5253 89.7192 36.1497 89.7192 36.9199C89.7192 37.6901 90.3435 38.3145 91.1137 38.3145Z" fill="#56CCF2"/>
<path d="M52.6662 7.27763C53.6872 7.27763 54.5148 6.44999 54.5148 5.42904C54.5148 4.40809 53.6872 3.58044 52.6662 3.58044C51.6453 3.58044 50.8177 4.40809 50.8177 5.42904C50.8177 6.44999 51.6453 7.27763 52.6662 7.27763Z" fill="#F2C94C"/>
<path d="M90.0515 7.45605H87.2299V4.63453C87.231 4.49592 87.2043 4.35849 87.1514 4.23037C87.0984 4.10226 87.0204 3.98605 86.9218 3.88859C86.8239 3.79053 86.7077 3.71275 86.5797 3.65967C86.4517 3.60659 86.3145 3.57925 86.1759 3.57925C86.0374 3.57925 85.9002 3.60659 85.7722 3.65967C85.6442 3.71275 85.5279 3.79053 85.43 3.88859C85.3304 3.98565 85.251 4.10162 85.1967 4.2297C85.1425 4.35779 85.1143 4.49541 85.1138 4.63453V7.45605H82.3004C82.1536 7.44319 82.0058 7.461 81.8664 7.50833C81.7269 7.55566 81.5988 7.63149 81.4902 7.731C81.3816 7.8305 81.2948 7.95151 81.2355 8.08633C81.1762 8.22115 81.1455 8.36685 81.1455 8.51414C81.1455 8.66144 81.1762 8.80711 81.2355 8.94193C81.2948 9.07675 81.3816 9.19776 81.4902 9.29727C81.5988 9.39677 81.7269 9.4726 81.8664 9.51993C82.0058 9.56727 82.1536 9.58507 82.3004 9.57221H85.1138V12.3937C85.137 12.6584 85.2585 12.9047 85.4544 13.0842C85.6502 13.2636 85.9062 13.3632 86.1719 13.3632C86.4375 13.3632 86.6935 13.2636 86.8894 13.0842C87.0852 12.9047 87.2068 12.6584 87.2299 12.3937V9.57221H90.0515C90.3161 9.54903 90.5625 9.42751 90.7419 9.23165C90.9214 9.03578 91.0209 8.77979 91.0209 8.51414C91.0209 8.2485 90.9214 7.99248 90.7419 7.79662C90.5625 7.60075 90.3161 7.47924 90.0515 7.45605Z" fill="white"/>
</svg>
