<svg width="103" height="71" viewBox="0 0 103 71" fill="none" xmlns="http://www.w3.org/2000/svg">
<path d="M102.396 43.8686C102.394 40.5131 101.219 37.2639 99.0751 34.6825C96.9313 32.1011 93.9532 30.3495 90.6553 29.7304C90.8185 29.022 90.903 28.2977 90.9073 27.5708C90.9075 25.8558 90.4536 24.1712 89.5917 22.6885C88.7297 21.2059 87.4905 19.9779 86 19.1295C84.5095 18.2811 82.8209 17.8426 81.1059 17.8586C79.3909 17.8745 77.7108 18.3444 76.2363 19.2203C75.3131 14.636 73.0659 10.423 69.773 7.10257C66.4801 3.78214 62.286 1.50003 57.7095 0.538621C53.133 -0.42279 48.3751 -0.0213076 44.0245 1.69338C39.6738 3.40807 35.9213 6.36071 33.2314 10.186C31.1085 8.65438 28.5768 7.79112 25.9605 7.7067C23.3441 7.62229 20.7621 8.32055 18.5449 9.71211C16.3277 11.1037 14.5761 13.1252 13.5145 15.518C12.4529 17.9108 12.1294 20.5659 12.5856 23.1436C8.63811 24.3881 5.24028 26.9552 2.96453 30.4124C0.688793 33.8696 -0.325749 38.0055 0.0918704 42.1234C0.509489 46.2413 2.33373 50.0893 5.25723 53.0192C8.18072 55.9491 12.0248 57.7818 16.1417 58.2084L16.0769 58.302H89.1724V58.2516C92.7814 57.9565 96.1467 56.3122 98.5976 53.6466C101.048 50.981 102.405 47.4897 102.396 43.8686Z" fill="#F6F8FE"/>
<path fill-rule="evenodd" clip-rule="evenodd" d="M90.9504 56.0775L72.1402 25.7422C71.17 24.2555 69.9527 22.9457 68.5409 21.8693C66.986 20.7368 65.1085 20.1337 63.185 20.1489C61.2558 20.1397 59.3733 20.742 57.8077 21.8693C56.4016 22.952 55.1853 24.2608 54.2083 25.7422L35.3046 56.2359C34.5729 57.6359 34.2149 59.2011 34.2654 60.78C34.3158 62.359 34.7729 63.8981 35.5925 65.2486C36.3416 66.4709 37.3896 67.4823 38.6377 68.1876C39.8858 68.8929 41.2929 69.2688 42.7264 69.2799H83.6293C85.0637 69.2729 86.4723 68.8987 87.7211 68.193C88.9698 67.4874 90.0172 66.4737 90.7632 65.2486C91.5961 63.8707 92.0518 62.2979 92.0847 60.6881C92.1175 59.0784 91.7263 57.4883 90.9504 56.0775V56.0775Z" stroke="#E2E8FB" stroke-width="2.5" stroke-miterlimit="10"/>
<path fill-rule="evenodd" clip-rule="evenodd" d="M84.4717 56.5888L65.6615 25.8073C64.6942 24.3039 63.4768 22.977 62.0622 21.884C60.5133 20.7366 58.6339 20.1227 56.7063 20.1347C54.773 20.1284 52.8885 20.7414 51.329 21.884C49.9201 22.9833 48.7037 24.3091 47.7296 25.8073L28.8259 56.7616C28.0943 58.186 27.7369 59.7731 27.7873 61.3736C27.8376 62.9741 28.2941 64.5355 29.1138 65.9111C29.8544 67.1455 30.899 68.1695 32.1479 68.8853C33.3968 69.6011 34.8083 69.9849 36.2477 70H77.1506C78.5802 69.9861 79.9825 69.6063 81.2237 68.8969C82.4649 68.1874 83.5038 67.1719 84.2413 65.9471C85.091 64.5423 85.5593 62.9399 85.5997 61.2986C85.6401 59.6572 85.2513 58.0338 84.4717 56.5888Z" fill="#193FC2"/>
<path d="M19.6187 14.0374C21.8252 14.0374 23.614 12.2486 23.614 10.0421C23.614 7.83555 21.8252 6.04681 19.6187 6.04681C17.4122 6.04681 15.6234 7.83555 15.6234 10.0421C15.6234 12.2486 17.4122 14.0374 19.6187 14.0374Z" stroke="#56CCF2" stroke-miterlimit="10"/>
<path d="M21.6991 39.6935C22.8481 39.6935 23.7795 38.762 23.7795 37.6131C23.7795 36.4641 22.8481 35.5326 21.6991 35.5326C20.5501 35.5326 19.6187 36.4641 19.6187 37.6131C19.6187 38.762 20.5501 39.6935 21.6991 39.6935Z" fill="#F2C94C"/>
<path d="M95.8528 26.5629C97.0018 26.5629 97.9332 25.6314 97.9332 24.4824C97.9332 23.3335 97.0018 22.402 95.8528 22.402C94.7038 22.402 93.7724 23.3335 93.7724 24.4824C93.7724 25.6314 94.7038 26.5629 95.8528 26.5629Z" stroke="#F2C94C" stroke-miterlimit="10"/>
<path d="M61.1551 4.16084C62.3041 4.16084 63.2356 3.22939 63.2356 2.08041C63.2356 0.931424 62.3041 0 61.1551 0C60.0061 0 59.0747 0.931424 59.0747 2.08041C59.0747 3.22939 60.0061 4.16084 61.1551 4.16084Z" fill="#56CCF2"/>
<rect x="53.7908" y="54.4292" width="5.75895" height="5.75895" rx="2.87947" fill="white"/>
<rect x="54.5107" y="32.8331" width="4.31921" height="15.8371" rx="2.15961" fill="white"/>
</svg>
