<svg width="108" height="84" viewBox="0 0 108 84" fill="none" xmlns="http://www.w3.org/2000/svg">
<path d="M1.89002 43.2597C1.88863 40.1172 2.67634 37.0246 4.18079 34.2656C5.68523 31.5065 7.8583 29.1694 10.5007 27.4685C13.1432 25.7676 16.1704 24.7573 19.3047 24.5304C22.439 24.3035 25.5802 24.8672 28.4401 26.1697C28.5333 20.1927 30.791 14.4523 34.7943 10.0131C38.7977 5.57396 44.2751 2.73722 50.2107 2.029C56.1463 1.32078 62.1373 2.78915 67.0728 6.16178C72.0082 9.53442 75.5531 14.5825 77.05 20.3697C79.9972 19.0558 83.1996 18.4135 86.4255 18.4893C89.6514 18.5651 92.8201 19.357 95.7024 20.8078C98.5846 22.2586 101.108 24.332 103.091 26.878C105.073 29.4239 106.465 32.3787 107.165 35.5286C107.866 38.6785 107.857 41.9446 107.14 45.0907C106.423 48.2369 105.016 51.1843 103.02 53.7196C101.024 56.255 98.489 58.315 95.5991 59.7505C92.7092 61.1859 89.5363 61.9611 86.3101 62.0197H19.9401C15.0904 61.8311 10.502 59.7722 7.13696 56.2748C3.77193 52.7774 1.89152 48.1131 1.89002 43.2597Z" fill="#F6F8FE"/>
<path d="M21.0801 24.9497H21.5701V77.7797H21.0801C20.4011 77.7797 19.75 77.51 19.2699 77.0299C18.7898 76.5498 18.52 75.8987 18.52 75.2197V27.5197C18.5187 27.1827 18.584 26.8487 18.7121 26.537C18.8401 26.2252 19.0285 25.9418 19.2664 25.703C19.5042 25.4643 19.7868 25.2748 20.098 25.1455C20.4093 25.0162 20.7431 24.9497 21.0801 24.9497Z" fill="#193FC2"/>
<path d="M72.79 19.8799H37.62C33.9363 19.8799 30.9501 22.8661 30.9501 26.5499V75.2099C30.9501 78.8936 33.9363 81.8799 37.62 81.8799H72.79C76.4738 81.8799 79.4601 78.8936 79.4601 75.2099V26.5499C79.4601 22.8661 76.4738 19.8799 72.79 19.8799Z" stroke="#E2E8FB" stroke-width="2.5" stroke-miterlimit="10"/>
<path d="M66.6001 18.79H29.6001C25.9164 18.79 22.9301 21.7763 22.9301 25.46V76.43C22.9301 80.1138 25.9164 83.1 29.6001 83.1H66.6001C70.2838 83.1 73.27 80.1138 73.27 76.43V25.46C73.27 21.7763 70.2838 18.79 66.6001 18.79Z" fill="#193FC2"/>
<path d="M21.03 66.02H27.05" stroke="#D1D9F3" stroke-width="2.5" stroke-miterlimit="10" stroke-linecap="round"/>
<path d="M21.03 49.02H27.05" stroke="#D1D9F3" stroke-width="2.5" stroke-miterlimit="10" stroke-linecap="round"/>
<path d="M21.03 33.02H27.05" stroke="#D1D9F3" stroke-width="2.5" stroke-miterlimit="10" stroke-linecap="round"/>
<path d="M48.13 51.1399C49.7261 51.1399 51.02 49.846 51.02 48.2499C51.02 46.6538 49.7261 45.3599 48.13 45.3599C46.5339 45.3599 45.2401 46.6538 45.2401 48.2499C45.2401 49.846 46.5339 51.1399 48.13 51.1399Z" fill="white"/>
<path fill-rule="evenodd" clip-rule="evenodd" d="M53.4301 55.3298C52.7525 56.0578 51.9323 56.6385 51.0204 57.0355C50.1085 57.4326 49.1246 57.6375 48.13 57.6375C47.1355 57.6375 46.1516 57.4326 45.2397 57.0355C44.3279 56.6385 43.5076 56.0578 42.8301 55.3298C43.2792 54.2975 44.02 53.4189 44.9615 52.8018C45.9031 52.1847 47.0043 51.856 48.13 51.856C49.2557 51.856 50.3571 52.1847 51.2986 52.8018C52.2401 53.4189 52.9809 54.2975 53.4301 55.3298Z" fill="white"/>
<path d="M59.8501 62.5602C62.6277 59.6484 64.1862 55.7845 64.2063 51.7605C64.2263 47.7365 62.7064 43.8572 59.958 40.9179C57.2096 37.9786 53.4409 36.202 49.4245 35.9523C45.4082 35.7025 41.4485 36.9986 38.3572 39.5747C35.2658 42.1509 33.2769 45.812 32.7983 49.8075C32.3197 53.803 33.3876 57.8302 35.7831 61.0636C38.1785 64.297 41.7202 66.4916 45.6819 67.1975C49.6435 67.9034 53.7252 67.0672 57.0901 64.8602L63.75 72.8602C64.0555 73.2253 64.4933 73.4545 64.9675 73.4976C65.4417 73.5407 65.9136 73.3942 66.28 73.0902C66.4619 72.9396 66.6124 72.7546 66.7225 72.5457C66.8326 72.3368 66.9002 72.1082 66.9216 71.873C66.943 71.6379 66.9177 71.4008 66.847 71.1755C66.7764 70.9501 66.6618 70.741 66.51 70.5602L59.8501 62.5602ZM56.2401 61.0402C54.0832 62.8353 51.3705 63.8271 48.5643 63.8466C45.7581 63.866 43.032 62.9119 40.8504 61.1467C38.6689 59.3816 37.1668 56.9147 36.6002 54.1662C36.0335 51.4178 36.4374 48.5579 37.7429 46.0738C39.0484 43.5898 41.1747 41.6352 43.7597 40.5431C46.3448 39.451 49.2285 39.289 51.9195 40.0847C54.6106 40.8803 56.9426 42.5844 58.5182 44.9067C60.0937 47.2289 60.8153 50.0255 60.56 52.8202C60.4194 54.4079 59.9652 55.952 59.2236 57.363C58.4821 58.774 57.468 60.0238 56.2401 61.0402Z" fill="white"/>
<path d="M14.9301 13.0798C17.4927 13.0798 19.5701 11.0024 19.5701 8.4398C19.5701 5.8772 17.4927 3.7998 14.9301 3.7998C12.3675 3.7998 10.29 5.8772 10.29 8.4398C10.29 11.0024 12.3675 13.0798 14.9301 13.0798Z" stroke="#F2C94C" stroke-width="0.8" stroke-miterlimit="10"/>
<path d="M2.89001 50.2097C4.48612 50.2097 5.78003 48.9158 5.78003 47.3197C5.78003 45.7236 4.48612 44.4297 2.89001 44.4297C1.29391 44.4297 0 45.7236 0 47.3197C0 48.9158 1.29391 50.2097 2.89001 50.2097Z" fill="#56CCF2"/>
<path d="M89.9 41.2697C91.4961 41.2697 92.79 39.9758 92.79 38.3797C92.79 36.7836 91.4961 35.4897 89.9 35.4897C88.3039 35.4897 87.01 36.7836 87.01 38.3797C87.01 39.9758 88.3039 41.2697 89.9 41.2697Z" fill="#F2C94C"/>
<path d="M57.2001 5.78C58.7962 5.78 60.0901 4.4861 60.0901 2.89C60.0901 1.2939 58.7962 0 57.2001 0C55.604 0 54.3101 1.2939 54.3101 2.89C54.3101 4.4861 55.604 5.78 57.2001 5.78Z" fill="#56CCF2"/>
</svg>