<svg width="100" height="65" viewBox="0 0 100 65" fill="none" xmlns="http://www.w3.org/2000/svg">
<path d="M9.34973e-08 37.9447C0.000261202 35.0629 0.723878 32.2273 2.10449 29.6978C3.4851 27.1683 5.47853 25.0258 7.90211 23.4667C10.3257 21.9075 13.1018 20.9817 15.9761 20.774C18.8504 20.5663 21.7307 21.0834 24.3533 22.2778C24.447 16.7991 26.5225 11.5398 30.1954 7.47332C33.8682 3.40689 38.8898 0.808693 44.3308 0.159624C49.7718 -0.489446 55.2637 0.854564 59.7901 3.94289C64.3165 7.03121 67.5708 11.6547 68.9508 16.9577C71.6545 15.7523 74.5923 15.1631 77.5517 15.2327C80.5111 15.3024 83.418 16.0291 86.062 17.3603C88.706 18.6916 91.021 20.594 92.8394 22.9299C94.6577 25.2659 95.934 27.9768 96.5758 30.8667C97.2176 33.7565 97.2089 36.7528 96.5503 39.6389C95.8917 42.5249 94.5996 45.2284 92.7677 47.5537C90.9358 49.879 88.6097 51.7679 85.958 53.0837C83.3063 54.3995 80.3952 55.1094 77.4354 55.1617H16.6116C12.1519 55.0025 7.92796 53.1188 4.82941 49.9074C1.73086 46.6959 -0.000464543 42.4073 9.34973e-08 37.9447Z" fill="#F6F8FE"/>
<path d="M81.5447 44.8519L72.7114 26.4424C72.446 25.8979 72.0343 25.4379 71.5224 25.1139C71.0105 24.7899 70.4186 24.6147 69.8128 24.6079H34.0395C33.4304 24.5992 32.832 24.7681 32.3173 25.0939C31.8026 25.4196 31.3938 25.8882 31.1409 26.4424L22.3169 44.8519C22.1206 45.2882 22.0115 45.7588 21.9958 46.237V61.0508C22.0007 61.9032 22.3414 62.7193 22.9441 63.322C23.5469 63.9248 24.363 64.2656 25.2155 64.2704H78.6185C79.4701 64.2655 80.2853 63.9245 80.8866 63.3215C81.4879 62.7185 81.8265 61.9023 81.8289 61.0508V46.237C81.8564 45.7584 81.7585 45.2809 81.5447 44.8519V44.8519Z" stroke="#E2E8FB" stroke-miterlimit="10"/>
<path d="M80.4622 8.04183C82.4531 8.04183 84.0671 6.4279 84.0671 4.43699C84.0671 2.44609 82.4531 0.832153 80.4622 0.832153C78.4713 0.832153 76.8574 2.44609 76.8574 4.43699C76.8574 6.4279 78.4713 8.04183 80.4622 8.04183Z" stroke="#56CCF2" stroke-miterlimit="10"/>
<path d="M97.0373 40.082C98.6735 40.082 100 38.7555 100 37.1192C100 35.4829 98.6735 34.1564 97.0373 34.1564C95.401 34.1564 94.0744 35.4829 94.0744 37.1192C94.0744 38.7555 95.401 40.082 97.0373 40.082Z" fill="#F2C94C"/>
<path d="M28.0773 12.5274C29.3185 12.5274 30.3246 11.5212 30.3246 10.2801C30.3246 9.03891 29.3185 8.03278 28.0773 8.03278C26.8362 8.03278 25.8301 9.03891 25.8301 10.2801C25.8301 11.5212 26.8362 12.5274 28.0773 12.5274Z" stroke="#F2C94C" stroke-width="0.75" stroke-miterlimit="10"/>
<path d="M5.79695 52.8318C7.0533 52.8318 8.07175 51.8133 8.07175 50.557C8.07175 49.3006 7.0533 48.2822 5.79695 48.2822C4.54061 48.2822 3.52216 49.3006 3.52216 50.557C3.52216 51.8133 4.54061 52.8318 5.79695 52.8318Z" fill="#56CCF2"/>
<path d="M77.8205 42.0998L68.9964 23.6903C68.7302 23.1464 68.3183 22.687 67.8066 22.3631C67.2949 22.0393 66.7034 21.8637 66.0979 21.8558H30.3246C29.7139 21.8454 29.1136 22.0134 28.5971 22.3392C28.0806 22.6651 27.6704 23.1347 27.4169 23.6903L18.5928 42.0998C18.4025 42.5377 18.2966 43.0077 18.2809 43.4849V58.2987C18.2833 59.1502 18.6221 59.9664 19.2233 60.5694C19.8246 61.1724 20.6398 61.5134 21.4913 61.5183H74.8945C75.746 61.5134 76.5612 61.1724 77.1625 60.5694C77.7637 59.9664 78.1025 59.1502 78.1049 58.2987V43.4849C78.1368 43.006 78.0385 42.5274 77.8205 42.0998Z" fill="#1F43BA"/>
<path d="M56.4484 39.9532C55.8503 39.9435 55.264 40.1201 54.7708 40.4587C54.2777 40.7973 53.9023 41.2811 53.6966 41.8428C53.3101 43.0223 52.5591 44.0486 51.5519 44.7739C50.5447 45.4992 49.3332 45.8861 48.092 45.8788C46.8516 45.8782 45.6427 45.4885 44.6356 44.7644C43.6285 44.0403 42.8739 43.0184 42.4784 41.8428C42.2739 41.2803 41.8987 40.7958 41.4054 40.457C40.912 40.1182 40.325 39.9421 39.7266 39.9532H28.6553C28.439 39.9525 28.2264 39.8971 28.0373 39.7923C27.8481 39.6875 27.6886 39.5366 27.5733 39.3536C27.458 39.1706 27.3908 38.9615 27.3779 38.7456C27.365 38.5297 27.4068 38.3141 27.4995 38.1187L31.8198 29.0928C31.9227 28.8733 32.0861 28.6876 32.2908 28.5577C32.4955 28.4277 32.733 28.3588 32.9755 28.359H63.0618C63.3056 28.3582 63.5446 28.4267 63.7509 28.5566C63.9572 28.6866 64.1223 28.8726 64.2268 29.0928L68.5287 38.082C68.6191 38.2783 68.6589 38.4942 68.6445 38.7098C68.63 38.9255 68.5617 39.1341 68.4458 39.3166C68.33 39.499 68.1703 39.6495 67.9813 39.7544C67.7922 39.8592 67.5799 39.9149 67.3637 39.9165C64.5844 39.8982 59.457 39.9074 56.4484 39.9532Z" fill="#E2E8FB"/>
</svg>
